<svg xmlns="http://www.w3.org/2000/svg" version="1.1" height="272" width="520" viewBox="0 0 520 272" class="diagram" text-anchor="middle" font-family="monospace" font-size="13px">
<rect class="backdrop" x="0" y="0" width="520" height="272" rx="3px" ry="3px" fill="white" opacity="0.9"/>
<path d="M 8,160 L 8,224" fill="none" stroke="black"/>
<path d="M 112,160 L 112,224" fill="none" stroke="black"/>
<path d="M 240,16 L 240,80" fill="none" stroke="black"/>
<path d="M 240,160 L 240,224" fill="none" stroke="black"/>
<path d="M 280,88 L 280,160" fill="none" stroke="black"/>
<path d="M 312,80 L 312,152" fill="none" stroke="black"/>
<path d="M 352,16 L 352,80" fill="none" stroke="black"/>
<path d="M 352,160 L 352,224" fill="none" stroke="black"/>
<path d="M 240,16 L 352,16" fill="none" stroke="black"/>
<path d="M 240,80 L 352,80" fill="none" stroke="black"/>
<path d="M 8,160 L 112,160" fill="none" stroke="black"/>
<path d="M 240,160 L 352,160" fill="none" stroke="black"/>
<path d="M 112,176 L 232,176" fill="none" stroke="black"/>
<path d="M 8,224 L 112,224" fill="none" stroke="black"/>
<path d="M 240,224 L 352,224" fill="none" stroke="black"/>
<polygon class="arrowhead" points="320,152 308,146.4 308,157.6 " fill="black" transform="rotate(90,312,152)"/>
<polygon class="arrowhead" points="288,88 276,82.4 276,93.6 " fill="black" transform="rotate(270,280,88)"/>
<polygon class="arrowhead" points="240,176 228,170.4 228,181.6 " fill="black" transform="rotate(0,232,176)"/>
<g class="text">
<text x="428" y="36">Compare Evidence</text>
<text x="300" y="52">Verifier</text>
<text x="432" y="52">against appraisal</text>
<text x="388" y="68">policy</text>
<text x="236" y="116">Evidence</text>
<text x="368" y="116">Attestation</text>
<text x="348" y="132">Result</text>
<text x="440" y="180">Compare Attestation</text>
<text x="60" y="196">Attester</text>
<text x="172" y="196">Evidence</text>
<text x="296" y="196">Relying</text>
<text x="420" y="196">Result against</text>
<text x="296" y="212">Party</text>
<text x="428" y="212">appraisal policy</text>
</g>
</svg>
